<?xml version="1.0" standalone="no"?><!DOCTYPE svg PUBLIC "-//W3C//DTD SVG 1.1//EN" "http://www.w3.org/Graphics/SVG/1.1/DTD/svg11.dtd"><svg t="1730795610847" class="icon" viewBox="0 0 1024 1024" version="1.1" xmlns="http://www.w3.org/2000/svg" p-id="1553" xmlns:xlink="http://www.w3.org/1999/xlink" width="200" height="200"><path d="M512 60.010667c-5.994667 0-12.010667-6.016-12.010667-12.010667V11.989333c0-5.973333 6.016-11.989333 12.010667-11.989333 5.994667 0 12.010667 5.994667 12.010667 12.010667V48c0 5.994667-6.016 12.010667-12.010667 12.010667z" fill="#5D3838" p-id="1554"></path><path d="M900.010667 1024H123.989333c-8 0-11.989333-5.994667-11.989333-12.010667V432c0-5.994667 4.010667-12.010667 12.010667-12.010667h775.978666c8.021333 0 12.010667 6.016 12.010667 12.010667v580.010667c0 5.973333-4.010667 11.989333-12.010667 11.989333z" fill="#E19974" p-id="1555"></path><path d="M620.010667 1024H404.010667v-104c0-29.994667 11.989333-56 32-74.005333 17.984-19.989333 43.989333-29.994667 73.984-29.994667h4.010666c29.994667 0 56 10.005333 73.984 29.994667 20.010667 18.005333 32 44.010667 32 74.005333V1024z" fill="#704444" p-id="1556"></path><path d="M844.010667 1024h-24.021334V419.989333h24.021334V1024z m-640 0H179.989333V419.989333h24.021334V1024z" fill="#C86D36" p-id="1557"></path><path d="M949.994667 444.010667H74.026667c-4.010667 0-5.994667 0-8-2.005334-2.005333-4.010667-4.010667-6.016-4.010667-10.005333C75.989333 210.005333 274.005333 35.989333 512 35.989333S947.989333 210.026667 962.005333 432c0 8-6.016 12.010667-12.010666 12.010667z" fill="#AE6C6C" p-id="1558"></path><path d="M216 444.010667h586.005333c-6.016-102.016-38.016-220.010667-88-290.005334-54.016-74.005333-124.010667-116.010667-198.016-118.016h-8c-73.984 2.005333-144 44.010667-197.973333 118.016-50.026667 69.994667-88.021333 187.989333-94.016 289.984z" fill="#724545" p-id="1559"></path><path d="M344 444.010667C354.005333 229.973333 424 36.010667 512 36.010667s157.994667 193.984 168 408h-336z" fill="#805858" p-id="1560"></path><path d="M704 794.005333H320c-5.994667 0-12.010667-6.016-12.010667-12.010666V504c0-8 6.016-12.010667 12.010667-12.010667h384c5.994667 0 12.010667 4.010667 12.010667 12.010667v277.994667c0 6.016-6.016 12.010667-12.010667 12.010666z" fill="#704444" p-id="1561"></path><path d="M332.010667 770.005333h359.978666V515.989333H332.032v254.016z" fill="#83DEFF" p-id="1562"></path><path d="M500.010667 770.005333h24v-116.010666h168v-24h-168.021334v-113.984h-24v113.984h-168v24h168.021334v116.010666z" fill="#2EB5FB" p-id="1563"></path></svg>